<svg width="802" height="542" viewBox="0 0 802 542" fill="none" xmlns="http://www.w3.org/2000/svg">
<path fill-rule="evenodd" clip-rule="evenodd" d="M391.197 29.2743C470.665 4.16152 558.819 -9.2596 631.026 8.05074C702.127 25.0962 741.139 72.9805 771.929 120.549C800.386 164.515 805.63 214.695 798.712 267.119C791.411 322.438 782.162 380.407 731.228 428.964C678.291 479.432 599.788 516.641 518.378 534.375C439.276 551.606 367.072 534.134 292.676 524.494C208.964 513.646 110.354 518.158 58.2552 474.749C3.60287 429.212 -14.457 358.527 14.5155 292.728C42.024 230.253 135.195 191.266 204.384 142.874C264.304 100.966 316.388 52.9146 391.197 29.2743Z" fill="#5A189A"/>
</svg>
